<svg id="Layer_1" enable-background="new 0 0 256 256" height="512" viewBox="0 0 256 256" width="512" xmlns="http://www.w3.org/2000/svg"><g><g><path d="m240 223.458h-224c-4.418 0-8-3.582-8-8v-7c0-2.209 1.791-4 4-4h232c2.209 0 4 1.791 4 4v7c0 4.419-3.582 8-8 8z" fill="#4671c6"/></g><g><path d="m142.343 215.292h-28.685c-1.517 0-2.746-1.23-2.746-2.746v-8.087h34.178v8.087c-.001 1.516-1.23 2.746-2.747 2.746z" fill="#e0ebfc"/></g><g><path d="m235.851 204.458h-215.702v-133.833c0-3.314 2.686-6 6-6h203.702c3.314 0 6 2.686 6 6z" fill="#a4c9ff"/></g><g><path d="m31.149 189.965v-110.847c0-1.657 1.343-3 3-3h187.702c1.657 0 3 1.343 3 3v110.847c0 1.657-1.343 3-3 3h-187.702c-1.657 0-3-1.343-3-3z" fill="#f9cfcf"/></g><g><path d="m240 225.458h-224c-5.514 0-10-4.486-10-10v-7c0-3.309 2.691-6 6-6h232c3.309 0 6 2.691 6 6v7c0 5.514-4.486 10-10 10zm-228-19c-1.103 0-2 .897-2 2v7c0 3.309 2.691 6 6 6h224c3.309 0 6-2.691 6-6v-7c0-1.103-.897-2-2-2z" fill="#3762cc"/></g><g><path d="m235.851 206.458h-215.702c-1.104 0-2-.896-2-2v-133.833c0-4.411 3.589-8 8-8h203.702c4.411 0 8 3.589 8 8v133.833c0 1.105-.896 2-2 2zm-213.702-4h211.702v-131.833c0-2.206-1.794-4-4-4h-203.702c-2.206 0-4 1.794-4 4z" fill="#3762cc"/></g><g><path d="m221.852 194.965h-187.703c-2.757 0-5-2.243-5-5v-110.847c0-2.757 2.243-5 5-5h187.703c2.757 0 5 2.243 5 5v110.847c0 2.757-2.244 5-5 5zm-187.703-116.847c-.551 0-1 .448-1 1v110.847c0 .552.449 1 1 1h187.703c.552 0 1-.448 1-1v-110.847c0-.552-.448-1-1-1z" fill="#3762cc"/></g><g><path d="m142.343 217.292h-28.686c-2.617 0-4.747-2.13-4.747-4.747v-8.087c0-1.104.896-2 2-2h34.178c1.104 0 2 .896 2 2v8.087c.001 2.617-2.128 4.747-4.745 4.747zm-29.432-10.834v6.087c0 .412.335.747.747.747h28.686c.411 0 .746-.335.746-.747v-6.087z" fill="#3762cc"/></g><g><path d="m206.844 40.542h-63.989c-8.204 0-14.855 6.651-14.855 14.855 0-8.204-6.651-14.855-14.855-14.855h-63.989c-3.314 0-6 2.686-6 6v101.924c0 2.03 1.645 3.675 3.675 3.675h54.233c10.216 0 19.675 5.113 25.291 13.481.783 1.167 2.506 1.167 3.29 0 5.617-8.368 15.075-13.481 25.291-13.481h54.232c2.03 0 3.676-1.646 3.676-3.676v-101.923c0-3.314-2.686-6-6-6z" fill="#4671c6"/></g><g><path d="m199.595 32.542h-58.446c-7.262 0-13.149 5.887-13.149 13.149 0-7.262-5.887-13.149-13.149-13.149h-58.446c-1.935 0-3.503 1.568-3.503 3.503v100.875c0 1.797 1.457 3.253 3.253 3.253h48.002c9.425 0 18.12 4.916 22.997 12.885.387.633 1.302.633 1.689 0 4.877-7.969 13.573-12.885 22.997-12.885h48.003c1.797 0 3.253-1.457 3.253-3.253v-100.875c.002-1.935-1.567-3.503-3.501-3.503z" fill="#e0ebfc"/></g><g><path d="m119.187 62.616c-.476 0-.958-.113-1.407-.353-4.538-2.416-9.67-3.692-14.841-3.692h-38.786c-1.657 0-3-1.343-3-3s1.343-3 3-3h38.785c6.151 0 12.258 1.52 17.661 4.396 1.462.778 2.017 2.596 1.239 4.058-.54 1.013-1.578 1.591-2.651 1.591z" fill="#a4c9ff"/></g><g><path d="m119.187 78.305c-.476 0-.958-.113-1.407-.353-4.54-2.416-9.672-3.692-14.842-3.692h-38.785c-1.657 0-3-1.343-3-3s1.343-3 3-3h38.785c6.149 0 12.256 1.52 17.66 4.396 1.463.778 2.018 2.595 1.239 4.058-.539 1.013-1.577 1.591-2.65 1.591z" fill="#a4c9ff"/></g><g><path d="m119.187 93.994c-.476 0-.958-.113-1.407-.353-4.539-2.416-9.671-3.693-14.841-3.693h-38.786c-1.657 0-3-1.343-3-3s1.343-3 3-3h38.785c6.15 0 12.257 1.521 17.661 4.396 1.462.778 2.017 2.596 1.239 4.058-.54 1.014-1.578 1.592-2.651 1.592z" fill="#a4c9ff"/></g><g><path d="m119.187 109.683c-.476 0-.958-.113-1.407-.353-4.54-2.416-9.672-3.692-14.842-3.692h-38.785c-1.657 0-3-1.343-3-3s1.343-3 3-3h38.785c6.149 0 12.256 1.52 17.66 4.396 1.463.778 2.018 2.595 1.239 4.058-.539 1.013-1.577 1.591-2.65 1.591z" fill="#a4c9ff"/></g><g><path d="m136.814 62.616c-1.073 0-2.111-.578-2.651-1.591-.778-1.463-.224-3.279 1.238-4.059 5.402-2.875 11.509-4.396 17.66-4.396h38.785c1.657 0 3 1.343 3 3s-1.343 3-3 3h-38.785c-5.171 0-10.303 1.276-14.84 3.692-.449.24-.931.354-1.407.354z" fill="#a4c9ff"/></g><g><path d="m136.814 78.305c-1.074 0-2.112-.578-2.651-1.592-.778-1.463-.224-3.279 1.239-4.058 5.403-2.876 11.51-4.396 17.659-4.396h38.785c1.657 0 3 1.343 3 3s-1.343 3-3 3h-38.785c-5.17 0-10.302 1.276-14.841 3.692-.449.24-.931.354-1.406.354z" fill="#a4c9ff"/></g><g><path d="m136.814 93.994c-1.073 0-2.111-.578-2.651-1.591-.778-1.463-.224-3.279 1.238-4.059 5.403-2.876 11.511-4.396 17.66-4.396h38.785c1.657 0 3 1.343 3 3s-1.343 3-3 3h-38.785c-5.17 0-10.302 1.277-14.84 3.693-.449.239-.931.353-1.407.353z" fill="#a4c9ff"/></g><g><path d="m136.814 109.683c-1.074 0-2.112-.578-2.651-1.592-.778-1.463-.224-3.279 1.239-4.058 5.403-2.876 11.51-4.396 17.659-4.396h38.785c1.657 0 3 1.343 3 3s-1.343 3-3 3h-38.785c-5.17 0-10.302 1.276-14.841 3.692-.449.24-.931.354-1.406.354z" fill="#a4c9ff"/></g><g><path d="m119.187 125.683c-.476 0-.958-.113-1.407-.353-4.54-2.416-9.672-3.692-14.842-3.692h-38.785c-1.657 0-3-1.343-3-3s1.343-3 3-3h38.785c6.149 0 12.256 1.52 17.66 4.396 1.463.778 2.018 2.595 1.239 4.058-.539 1.013-1.577 1.591-2.65 1.591z" fill="#a4c9ff"/></g><g><path d="m136.814 125.683c-1.074 0-2.112-.578-2.651-1.592-.778-1.463-.224-3.279 1.239-4.058 5.403-2.876 11.51-4.396 17.659-4.396h38.785c1.657 0 3 1.343 3 3s-1.343 3-3 3h-38.785c-5.17 0-10.302 1.276-14.841 3.692-.449.24-.931.354-1.406.354z" fill="#a4c9ff"/></g><g><path d="m128 155.058c-1.104 0-2-.896-2-2v-107.368c0-1.104.896-2 2-2s2 .896 2 2v107.367c0 1.105-.896 2.001-2 2.001z" fill="#3762cc"/></g><g><path d="m128 155.533c-1.049 0-2.003-.536-2.551-1.433-4.502-7.356-12.661-11.928-21.291-11.928h-48.002c-2.897 0-5.253-2.356-5.253-5.253v-100.874c0-3.034 2.469-5.503 5.503-5.503h58.446c5.62 0 10.534 3.075 13.149 7.632 2.615-4.557 7.529-7.632 13.148-7.632h58.446c3.034 0 5.503 2.469 5.503 5.503v100.875c0 2.896-2.356 5.253-5.253 5.253h-48.003c-8.63 0-16.788 4.571-21.291 11.929-.548.895-1.501 1.431-2.551 1.431zm-71.595-120.991c-.829 0-1.503.674-1.503 1.503v100.875c0 .69.563 1.253 1.253 1.253h48.002c9.484 0 18.479 4.76 23.842 12.518 5.364-7.76 14.357-12.518 23.842-12.518h48.003c.69 0 1.253-.563 1.253-1.253v-100.875c0-.829-.674-1.503-1.503-1.503h-58.446c-6.147 0-11.148 5.001-11.148 11.148 0 1.104-.896 2-2 2s-2-.896-2-2c0-6.147-5.001-11.148-11.149-11.148z" fill="#3762cc"/></g></g></svg>